<svg xmlns="http://www.w3.org/2000/svg" viewBox="0 0 128 128" role="img">
  <title>Kolam infinity math icon</title>
  <rect width="128" height="128" fill="none"/>
  <g fill="none" stroke="#e7b866" stroke-width="4" stroke-linecap="round" stroke-linejoin="round">
    <path d="M22 64c16-24 34-24 42 0s26 24 42 0"/>
    <path d="M22 64c16 24 34 24 42 0s26-24 42 0"/>
    <path d="M31 39c9-7 19-11 33-11s24 4 33 11"/>
    <path d="M31 89c9 7 19 11 33 11s24-4 33-11"/>
    <path d="M64 28v72"/>
    <path d="M28 64h72"/>
  </g>
  <g fill="#f7eddb">
    <circle cx="28" cy="64" r="3"/>
    <circle cx="100" cy="64" r="3"/>
    <circle cx="64" cy="28" r="3"/>
    <circle cx="64" cy="100" r="3"/>
  </g>
</svg>
